HIERARCHY
ROOT Hips
{
  OFFSET 0 0 0
  CHANNELS 6 Xposition Yposition Zposition Zrotation Yrotation Xrotation
  JOINT LeftThigh
  {
    OFFSET 8.409438 0 -5.917753
    CHANNELS 3 Zrotation Yrotation Xrotation
    JOINT LeftLeg
    {
      OFFSET 0 0 -42.358652
      CHANNELS 3 Zrotation Yrotation Xrotation
      JOINT LeftFoot
      {
        OFFSET 0 0 -39.357303
        CHANNELS 3 Zrotation Yrotation Xrotation
      }
    }
  }
  JOINT RightThigh
  {
    OFFSET -8.409438 0 -5.917753
    CHANNELS 3 Zrotation Yrotation Xrotation
    JOINT RightLeg
    {
      OFFSET 0 0 -42.358652
      CHANNELS 3 Zrotation Yrotation Xrotation
      JOINT RightFoot
      {
        OFFSET 0 0 -39.357303
        CHANNELS 3 Zrotation Yrotation Xrotation
      }
    }
  }
  JOINT SpineLow
  {
    OFFSET 0 0 4.719101
    CHANNELS 3 Zrotation Yrotation Xrotation
    JOINT SpineMid
    {
      OFFSET 0 0 12.899191
      CHANNELS 3 Zrotation Yrotation Xrotation
      JOINT Chest
      {
        OFFSET 0 0 12.899191
        CHANNELS 3 Zrotation Yrotation Xrotation
        JOINT LeftShoulder
        {
          OFFSET 7.550562 1.41573 9.438202
          CHANNELS 3 Zrotation Yrotation Xrotation
          JOINT LeftArm
          {
            OFFSET 9.155056 0 4.247191
            CHANNELS 3 Zrotation Yrotation Xrotation
            JOINT LeftForearm
            {
              OFFSET 0 0 25.771955
              CHANNELS 3 Zrotation Yrotation Xrotation
              JOINT LeftHand
              {
                OFFSET 0 0 25.197169
                CHANNELS 3 Zrotation Yrotation Xrotation
              }
            }
          }
        }
        JOINT RightShoulder
        {
          OFFSET -7.550562 1.41573 9.438202
          CHANNELS 3 Zrotation Yrotation Xrotation
          JOINT RightArm
          {
            OFFSET -9.155056 0 4.247191
            CHANNELS 3 Zrotation Yrotation Xrotation
            JOINT RightForearm
            {
              OFFSET 0 0 -25.771955
              CHANNELS 3 Zrotation Yrotation Xrotation
              JOINT RightHand
              {
                OFFSET 0 0 -25.197169
                CHANNELS 3 Zrotation Yrotation Xrotation
              }
            }
          }
        }
        JOINT Neck
        {
          OFFSET 0 0 15.101124
          CHANNELS 3 Zrotation Yrotation Xrotation
          JOINT Head
          {
            OFFSET 0 0 11.325843
            CHANNELS 3 Zrotation Yrotation Xrotation
            End Site
            {
              OFFSET 0 0 14.157303
            }
          }
        }
      }
    }
  }
}
MOTION
Frames: 17
Frame Time: 0.0
0.0  89.887642  0.0  7.551321  19.452396  -86.660062  32.300296  -27.647108  11.140096  3.149272  13.93426  30.584251  -7.071487  -1.665647  -1.83799  -15.436002  11.536327  -53.205819  6.047585  3.970075  62.345298  6.861014  3.858306  1.224822  2.417993  -0.066398  1.371024  6.603183  -0.318163  3.736642  6.603183  -0.318163  3.736642  -20.290489  15.492617  2.601998  139.455509  53.090536  -149.320136  -18.930553  -1.379605  99.983892  77.171106  -0.980768  8.800686  -6.965015  2.444872  9.62544  -13.988123  59.488461  -42.997178  -24.144697  -16.883441  -93.976833  56.912412  -16.138373  7.178535  -31.427496  -1.035649  -3.052885  -23.575845  -0.621478  -2.350346  
0.0  89.887642  0.0  7.384428  17.418592  -87.141026  32.003434  -27.469242  12.902624  4.4807  13.204954  29.9987  -6.911336  -1.676956  -1.975245  -13.123763  11.770819  -52.584937  5.546311  3.789461  62.340666  7.01246  3.751835  1.211124  2.407546  -0.049683  1.493414  6.574869  -0.28411  4.072528  6.574869  -0.28411  4.072528  -20.763894  14.518386  0.965526  144.769633  56.041069  -144.882696  -20.174908  -1.838982  103.146834  79.320153  0.385189  9.244895  -6.91465  2.740509  7.958759  -15.095983  60.655554  -46.191581  -24.066066  -16.770305  -94.731237  57.187631  -16.945993  8.926653  -30.050248  -0.945801  -3.239055  -22.542933  -0.551465  -2.482956  
0.0  89.887642  0.0  7.293561  15.648624  -87.567746  31.169803  -27.104386  14.893893  6.158086  12.320761  29.362067  -6.743143  -1.685341  -2.077119  -11.275703  11.740674  -51.756751  5.327077  3.575745  62.045226  7.229618  3.726248  1.107327  2.278258  -0.06057  1.537613  6.220686  -0.310028  4.192949  6.220686  -0.310028  4.192949  -20.567431  13.81442  -0.235866  151.068896  59.575647  -139.25654  -21.924223  -2.37621  106.089766  81.392005  2.119395  9.906838  -6.095173  3.145963  6.456438  -17.022041  62.159775  -50.150432  -24.420477  -16.504289  -95.322785  57.601738  -17.715302  10.509073  -28.325904  -0.518736  -3.222544  -21.247724  -0.240122  -2.447221  
0.0  89.887642  0.0  7.293561  14.109704  -87.968207  30.061491  -26.508899  16.913357  7.935952  11.26859  28.778142  -6.643806  -1.71022  -2.163807  -9.990132  11.442477  -50.668804  5.48913  3.35255  61.285473  7.315645  3.718395  1.072123  2.070561  -0.062474  1.543442  5.653069  -0.302577  4.20997  5.653068  -0.302577  4.209969  -19.938548  13.096379  -1.197873  159.073922  63.323275  -131.806469  -24.120925  -2.827686  108.559265  82.990904  4.463968  10.901833  -5.307123  3.485623  4.971176  -18.975074  64.009322  -54.884314  -25.42801  -15.766422  -95.674879  58.008356  -18.584411  12.091539  -26.401001  0.116737  -3.09402  -19.800769  0.221858  -2.320616  
0.0  89.887642  0.0  7.33349  12.761117  -88.293918  29.043247  -25.68107  18.673408  9.352762  10.10817  28.254544  -6.422404  -1.773469  -2.221268  -9.201804  10.735348  -49.283182  6.123038  3.375011  59.99948  7.23173  3.762338  1.141244  1.857008  -0.056564  1.502724  5.070204  -0.269744  4.100441  5.070204  -0.269744  4.10044  -19.28437  12.16577  -2.141836  168.764433  66.706637  -122.507268  -26.759946  -3.062463  110.30961  83.870473  7.297421  12.421654  -4.419848  3.833555  3.500668  -20.941704  66.095892  -59.886406  -27.234823  -14.381032  -95.644015  58.600058  -19.524345  13.802813  -24.561772  0.780103  -2.783153  -18.417961  0.698392  -2.059905  
0.0  89.887642  0.0  7.273319  11.387929  -88.688353  28.474629  -24.815595  20.124272  10.001594  8.827249  27.691158  -5.964407  -1.83173  -2.223297  -9.001879  9.754919  -48.153507  7.309759  3.430902  58.879601  7.434457  3.75965  1.285404  1.615073  -0.029357  1.450103  4.411064  -0.176952  3.959728  4.411064  -0.176952  3.959727  -18.646182  11.107104  -3.080823  179.833974  69.77779  -111.748036  -29.870434  -3.533133  110.909127  83.895384  10.142333  14.380936  -3.329175  3.591639  1.660284  -24.034858  68.794555  -65.903158  -29.316782  -12.792392  -95.315902  59.121102  -20.420734  15.915358  -22.580112  1.397958  -2.37192  -16.929136  1.138034  -1.729958  
0.0  89.887642  0.0  7.065188  10.08785  -89.000257  28.233794  -23.938786  21.123388  9.81094  7.591233  27.085719  -5.342044  -1.937855  -2.086527  -8.256214  8.688159  -47.251322  8.25396  3.819895  58.207495  7.607085  3.520589  1.45996  1.397899  -0.016962  1.410493  3.818539  -0.127814  3.852984  3.818539  -0.127814  3.852984  -18.485479  9.970182  -4.16361  -166.817631  71.802405  -98.883589  -32.564129  -4.49507  110.427788  83.856758  12.645859  16.500077  -2.374531  3.508487  -0.486922  -29.463626  71.150056  -73.775393  -31.194166  -11.04131  -94.721499  59.165585  -20.99731  18.541717  -20.691804  1.901649  -2.056166  -15.511248  1.497949  -1.479549  
0.0  89.887642  0.0  6.467506  7.915443  -89.772439  28.791412  -23.472908  22.182925  8.990957  6.518544  26.52188  -4.467235  -2.101137  -1.857973  -6.358339  7.283338  -46.013676  9.242073  4.11039  57.965246  7.67242  3.396228  1.528491  1.306276  -0.052432  1.445172  3.565988  -0.22123  3.94609  3.565988  -0.22123  3.946089  -18.546217  8.582063  -5.413445  -151.989193  72.450126  -85.220685  -34.395269  -5.717906  109.205212  84.584597  14.977989  18.585247  -1.467591  3.552994  -2.785556  -37.963501  73.058404  -84.382704  -32.841359  -9.480597  -93.759693  58.712344  -21.409229  21.154178  -18.741445  2.307259  -1.834561  -14.047414  1.788737  -1.306367  
0.0  89.887642  0.0  5.921577  6.639412  -89.961602  27.975083  -22.474389  22.846787  8.129256  5.776112  26.173865  -3.3148  -2.325536  -1.556683  -5.173404  5.88714  -45.091582  10.02152  4.285957  57.563332  7.59217  3.461775  1.620485  1.059216  -0.064145  1.414864  2.89038  -0.237167  3.863743  2.89038  -0.237167  3.863743  -18.426162  6.568677  -7.177508  -138.879354  72.459183  -73.589527  -36.028537  -7.588488  107.183797  85.988063  17.16523  20.76605  -0.715915  3.694258  -5.2408  -47.994838  74.392079  -96.556308  -34.251619  -7.957086  -92.309508  58.029628  -21.588136  23.106523  -16.727044  2.535361  -1.711404  -12.536255  1.950122  -1.214961  
0.0  89.887642  0.0  5.255721  5.343664  -90.072976  26.186322  -21.074058  23.495736  7.837997  5.170836  26.295626  -1.775259  -2.629705  -1.358136  -3.596983  4.685735  -44.20706  10.568096  4.054779  57.011549  7.264893  3.49952  1.851094  0.858354  -0.105357  1.415538  2.339155  -0.33805  3.864962  2.339156  -0.33805  3.864962  -18.521638  4.49745  -9.172183  -126.255387  72.665863  -62.206648  -37.643644  -10.985491  104.382859  87.613426  19.274658  23.227817  -0.30473  3.927421  -8.070235  -59.166535  75.265912  -109.657276  -35.270234  -6.629531  -90.351863  57.700177  -21.506739  23.781962  -14.907293  2.662841  -1.797294  -11.170741  2.042436  -1.283618  
0.0  89.887642  0.0  4.505018  3.990515  -90.113795  23.755613  -19.352854  23.790366  8.35558  4.622597  27.172486  -0.240981  -2.934939  -1.229656  -1.540499  3.828788  -43.507131  10.59621  3.77662  56.526475  6.932611  3.602136  2.045139  0.831248  -0.138228  1.402378  2.263272  -0.425819  3.828037  2.263271  -0.425819  3.828037  -19.590144  2.350555  -10.304488  -112.155353  72.592044  -48.899227  -38.76026  -15.921137  100.554367  89.199412  20.926918  25.963803  -0.713554  4.021935  -10.701381  -70.697051  75.375273  -122.680623  -35.778245  -5.508282  -87.913307  57.980533  -21.288787  23.060071  -13.712381  2.61421  -1.851519  -10.274693  2.003419  -1.330485  
0.0  89.887642  0.0  3.808924  2.582035  -90.084007  20.993956  -17.445853  23.596335  9.733416  4.116723  29.007981  1.350715  -3.153569  -1.417434  1.26293  3.399042  -42.840609  10.034245  3.762685  55.966928  6.586793  3.553247  2.262449  1.084939  -0.098932  1.377749  2.958853  -0.33204  3.760658  2.958852  -0.33204  3.760658  -22.257673  -0.215756  -10.81502  -97.483453  72.193527  -34.80755  -38.864892  -21.670001  95.484941  90.405392  21.967586  28.756196  -2.868536  3.821542  -12.788082  -79.881852  74.485893  -133.182441  -35.753283  -4.497529  -85.050719  59.032987  -20.891336  20.822261  -13.54897  2.227782  -1.822385  -10.153913  1.712258  -1.31796  
0.0  89.887642  0.0  3.241883  1.246138  -90.045738  18.014772  -15.597634  22.788326  11.754692  3.533034  31.885773  2.524054  -3.088264  -1.949026  4.48793  3.23033  -41.961133  9.08918  4.093819  55.197317  6.314409  3.385897  2.462174  1.46089  -0.023119  1.366367  3.990431  -0.145639  3.73187  3.99043  -0.145639  3.73187  -25.707923  -2.792333  -11.588064  -81.973003  72.05654  -19.869848  -37.700364  -27.489634  88.902533  90.99647  22.273869  31.094925  -5.586276  3.501686  -14.941717  -86.552048  73.483956  -140.81084  -35.127836  -3.501939  -81.735884  60.490203  -20.020301  17.318874  -13.918361  1.716004  -1.813566  -10.433011  1.329145  -1.321784  
0.0  89.887642  0.0  2.750942  -0.01869  -89.955222  15.326106  -14.050059  21.174421  13.568152  2.843432  35.572485  2.546383  -3.027612  -2.395324  7.729025  3.068064  -41.147978  8.25053  4.28449  54.510683  6.003848  3.272562  2.53707  1.612673  0.012556  1.357649  4.407187  -0.05619  3.709937  4.407187  -0.05619  3.709937  -27.515445  -4.774188  -12.449802  -65.678658  71.485662  -3.916829  -34.952312  -32.874922  80.486643  90.453858  21.841752  32.449106  -7.182063  3.574504  -17.450239  -90.647824  72.751303  -146.097285  -33.780613  -2.416601  -78.0719  62.513817  -18.716433  12.347247  -13.539694  1.490714  -1.883073  -10.149722  1.160451  -1.379987  
0.0  89.887642  0.0  2.345112  -1.272377  -89.852892  13.628495  -12.973002  18.868228  14.258712  2.0906  39.718159  1.885892  -3.122493  -2.256758  10.601048  2.766172  -40.454668  7.382263  4.664096  53.687809  5.631563  3.356388  2.705615  1.594603  0.013087  1.327567  4.357897  -0.051743  3.62782  4.357897  -0.051743  3.62782  -27.924811  -6.269742  -13.204188  -50.446961  70.168935  11.375145  -30.17327  -37.301677  69.849278  87.955531  20.200281  32.10699  -7.013968  4.177983  -19.681696  -94.560296  71.956806  -150.603859  -31.924298  -1.119775  -74.111522  65.03735  -17.706151  7.49633  -12.705159  1.406704  -1.891597  -9.524147  1.094933  -1.390083  
0.0  89.887642  0.0  2.051183  -2.270198  -89.780414  12.878197  -12.274111  16.148934  12.676279  2.892213  43.997508  1.325037  -3.601246  -1.847561  12.350515  2.219454  -39.81612  7.194527  4.868182  52.726046  5.28325  3.436824  2.957517  1.473844  0.013886  1.295891  4.028019  -0.041009  3.541521  4.028018  -0.041009  3.541521  -27.923962  -7.554108  -13.506604  -38.52713  67.282568  23.586316  -23.31915  -39.723945  56.739515  86.613466  17.326909  32.08556  -6.496076  5.011214  -21.384512  -98.62236  70.736889  -155.329163  -30.021391  0.355215  -69.936482  67.154697  -17.135082  3.143857  -11.721582  1.358345  -1.854713  -8.78675  1.054808  -1.365503  
0.0  89.887642  0.0  1.936136  -2.857605  -89.870713  12.64657  -11.516209  13.269006  10.263096  4.426273  48.728098  -0.533521  -4.401042  -1.965865  13.075564  1.74903  -39.063672  7.247102  4.975277  51.754677  5.152041  3.405386  3.117554  1.430216  0.053794  1.306034  3.910947  0.069735  3.57166  3.910947  0.069735  3.57166  -28.933624  -9.206335  -13.475719  -28.644621  64.321603  32.891323  -17.29786  -40.941812  44.335848  84.365599  13.830408  34.868052  -6.897487  5.799458  -22.83134  -104.908654  69.449516  -162.107372  -28.843629  1.953286  -65.773689  68.87033  -17.277818  -0.737  -11.386191  1.145224  -1.844673  -8.535997  0.893668  -1.362677  
